<!-- Generated by IcoMoon.io -->
<svg version="1.1" xmlns="http://www.w3.org/2000/svg" width="768" height="768" viewBox="0 0 768 768">
<title></title>
<g id="icomoon-ignore">
</g>
<path fill="#000" d="M384 559.5q-55.5 0-99.75-30.75t-63.75-80.25h327q-19.5 49.5-63.75 80.25t-99.75 30.75zM271.5 352.5q-19.5 0-33.75-14.25t-14.25-33.75 14.25-33.75 33.75-14.25 33.75 14.25 14.25 33.75-14.25 33.75-33.75 14.25zM496.5 352.5q-19.5 0-33.75-14.25t-14.25-33.75 14.25-33.75 33.75-14.25 33.75 14.25 14.25 33.75-14.25 33.75-33.75 14.25zM384 640.5q105 0 180.75-75.75t75.75-180.75-75.75-180.75-180.75-75.75-180.75 75.75-75.75 180.75 75.75 180.75 180.75 75.75zM384 64.5q132 0 225.75 93.75t93.75 225.75-93.75 225.75-225.75 93.75-225.75-93.75-93.75-225.75 93.75-225.75 225.75-93.75z"></path>
</svg>
